<mxfile host="65bd71144e" scale="5" border="0">
    <diagram id="RKooDY8fcuxsYfBq0sk9" name="第 1 页">
        <mxGraphModel dx="563" dy="1459" grid="1" gridSize="10" guides="1" tooltips="1" connect="1" arrows="1" fold="1" page="1" pageScale="1" pageWidth="827" pageHeight="1169" background="#ffffff" math="0" shadow="0">
            <root>
                <mxCell id="0"/>
                <mxCell id="1" parent="0"/>
                <mxCell id="151" value="" style="rounded=0;whiteSpace=wrap;html=1;fillColor=none;strokeColor=#b85450;strokeWidth=3;dashed=1;" vertex="1" parent="1">
                    <mxGeometry x="40" y="110" width="420" height="180" as="geometry"/>
                </mxCell>
                <mxCell id="152" value="" style="rounded=0;whiteSpace=wrap;html=1;fillColor=none;strokeColor=#6c8ebf;strokeWidth=3;dashed=1;" vertex="1" parent="1">
                    <mxGeometry x="480" y="110" width="420" height="180" as="geometry"/>
                </mxCell>
                <mxCell id="56" value="" style="rounded=0;whiteSpace=wrap;html=1;fillColor=#ffe6cc;strokeColor=#d79b00;" parent="1" vertex="1">
                    <mxGeometry x="120" y="150" width="80" height="30" as="geometry"/>
                </mxCell>
                <mxCell id="57" value="" style="rounded=0;whiteSpace=wrap;html=1;" parent="1" vertex="1">
                    <mxGeometry x="200" y="150" width="80" height="30" as="geometry"/>
                </mxCell>
                <mxCell id="58" value="" style="rounded=0;whiteSpace=wrap;html=1;fillColor=#ffe6cc;strokeColor=#d79b00;" parent="1" vertex="1">
                    <mxGeometry x="280" y="150" width="80" height="30" as="geometry"/>
                </mxCell>
                <mxCell id="59" value="" style="rounded=0;whiteSpace=wrap;html=1;" parent="1" vertex="1">
                    <mxGeometry x="360" y="150" width="80" height="30" as="geometry"/>
                </mxCell>
                <mxCell id="60" value="&lt;font face=&quot;Georgia&quot; style=&quot;font-size: 9px;&quot;&gt;&lt;b&gt;{&#39;hA,&amp;nbsp;&lt;span style=&quot;color: rgb(0, 0, 0);&quot;&gt;12&lt;/span&gt;&#39;h1}&lt;/b&gt;&lt;/font&gt;&lt;div&gt;&lt;font face=&quot;Georgia&quot; style=&quot;font-size: 9px;&quot;&gt;&lt;b&gt;age = 2&lt;/b&gt;&lt;/font&gt;&lt;/div&gt;" style="rounded=0;whiteSpace=wrap;html=1;fillColor=#ffe6cc;strokeColor=#d79b00;" parent="1" vertex="1">
                    <mxGeometry x="120" y="180" width="80" height="30" as="geometry"/>
                </mxCell>
                <mxCell id="61" value="" style="rounded=0;whiteSpace=wrap;html=1;fillColor=#ffe6cc;strokeColor=#d79b00;" parent="1" vertex="1">
                    <mxGeometry x="200" y="180" width="80" height="30" as="geometry"/>
                </mxCell>
                <mxCell id="62" value="&lt;font face=&quot;Georgia&quot; style=&quot;font-size: 9px;&quot;&gt;&lt;b&gt;{&#39;h7,&amp;nbsp;&lt;span style=&quot;color: rgb(0, 0, 0);&quot;&gt;12&lt;/span&gt;&#39;h1}&lt;/b&gt;&lt;/font&gt;&lt;div&gt;&lt;font face=&quot;Georgia&quot; style=&quot;font-size: 9px;&quot;&gt;&lt;b&gt;age = 3&lt;/b&gt;&lt;/font&gt;&lt;/div&gt;" style="rounded=0;whiteSpace=wrap;html=1;fillColor=#ffe6cc;strokeColor=#d79b00;" parent="1" vertex="1">
                    <mxGeometry x="280" y="180" width="80" height="30" as="geometry"/>
                </mxCell>
                <mxCell id="63" value="" style="rounded=0;whiteSpace=wrap;html=1;fillColor=#ffe6cc;strokeColor=#d79b00;" parent="1" vertex="1">
                    <mxGeometry x="360" y="180" width="80" height="30" as="geometry"/>
                </mxCell>
                <mxCell id="64" value="... ..." style="rounded=0;whiteSpace=wrap;html=1;" parent="1" vertex="1">
                    <mxGeometry x="120" y="210" width="80" height="30" as="geometry"/>
                </mxCell>
                <mxCell id="65" value="&lt;span style=&quot;color: rgb(0, 0, 0);&quot;&gt;... ...&lt;/span&gt;" style="rounded=0;whiteSpace=wrap;html=1;" parent="1" vertex="1">
                    <mxGeometry x="200" y="210" width="80" height="30" as="geometry"/>
                </mxCell>
                <mxCell id="66" value="&lt;span style=&quot;color: rgb(0, 0, 0);&quot;&gt;... ...&lt;/span&gt;" style="rounded=0;whiteSpace=wrap;html=1;" parent="1" vertex="1">
                    <mxGeometry x="280" y="210" width="80" height="30" as="geometry"/>
                </mxCell>
                <mxCell id="67" value="&lt;span style=&quot;color: rgb(0, 0, 0);&quot;&gt;... ...&lt;/span&gt;" style="rounded=0;whiteSpace=wrap;html=1;" parent="1" vertex="1">
                    <mxGeometry x="360" y="210" width="80" height="30" as="geometry"/>
                </mxCell>
                <mxCell id="68" value="" style="rounded=0;whiteSpace=wrap;html=1;" parent="1" vertex="1">
                    <mxGeometry x="120" y="240" width="80" height="30" as="geometry"/>
                </mxCell>
                <mxCell id="69" value="" style="rounded=0;whiteSpace=wrap;html=1;" parent="1" vertex="1">
                    <mxGeometry x="200" y="240" width="80" height="30" as="geometry"/>
                </mxCell>
                <mxCell id="70" value="" style="rounded=0;whiteSpace=wrap;html=1;" parent="1" vertex="1">
                    <mxGeometry x="280" y="240" width="80" height="30" as="geometry"/>
                </mxCell>
                <mxCell id="71" value="" style="rounded=0;whiteSpace=wrap;html=1;fillColor=#ffe6cc;strokeColor=#d79b00;" parent="1" vertex="1">
                    <mxGeometry x="360" y="240" width="80" height="30" as="geometry"/>
                </mxCell>
                <mxCell id="78" value="&lt;b&gt;&lt;font face=&quot;Georgia&quot;&gt;Index0&lt;/font&gt;&lt;/b&gt;" style="text;html=1;align=center;verticalAlign=middle;resizable=0;points=[];autosize=1;strokeColor=none;fillColor=none;" parent="1" vertex="1">
                    <mxGeometry x="50" y="150" width="70" height="30" as="geometry"/>
                </mxCell>
                <mxCell id="91" value="&lt;font face=&quot;Georgia&quot;&gt;&lt;b&gt;Req ：SnpData, MemRd, pid = 2&lt;/b&gt;&lt;/font&gt;" style="text;html=1;align=center;verticalAlign=middle;resizable=0;points=[];autosize=1;strokeColor=none;fillColor=none;" parent="1" vertex="1">
                    <mxGeometry x="270" y="-105" width="220" height="30" as="geometry"/>
                </mxCell>
                <mxCell id="92" value="&lt;font face=&quot;Georgia&quot;&gt;&lt;b&gt;BISnp ：？&amp;nbsp; &amp;nbsp;BISnpInv / BISnpData&lt;/b&gt;&lt;/font&gt;" style="text;html=1;align=center;verticalAlign=middle;resizable=0;points=[];autosize=1;strokeColor=none;fillColor=none;" parent="1" vertex="1">
                    <mxGeometry x="260" y="-65" width="240" height="30" as="geometry"/>
                </mxCell>
                <mxCell id="93" value="&lt;font face=&quot;Georgia&quot;&gt;&lt;b&gt;Index4095&lt;/b&gt;&lt;/font&gt;" style="text;html=1;align=center;verticalAlign=middle;resizable=0;points=[];autosize=1;strokeColor=none;fillColor=none;" parent="1" vertex="1">
                    <mxGeometry x="40" y="240" width="90" height="30" as="geometry"/>
                </mxCell>
                <mxCell id="94" value="... ..." style="text;html=1;align=center;verticalAlign=middle;resizable=0;points=[];autosize=1;strokeColor=none;fillColor=none;" parent="1" vertex="1">
                    <mxGeometry x="65" y="208" width="50" height="30" as="geometry"/>
                </mxCell>
                <mxCell id="95" value="&lt;font face=&quot;Georgia&quot;&gt;&lt;b&gt;Index1&lt;/b&gt;&lt;/font&gt;" style="text;html=1;align=center;verticalAlign=middle;resizable=0;points=[];autosize=1;strokeColor=none;fillColor=none;" parent="1" vertex="1">
                    <mxGeometry x="55" y="180" width="60" height="30" as="geometry"/>
                </mxCell>
                <mxCell id="96" value="&lt;font face=&quot;Georgia&quot;&gt;&lt;b&gt;Way0&lt;/b&gt;&lt;/font&gt;" style="text;html=1;align=center;verticalAlign=middle;resizable=0;points=[];autosize=1;strokeColor=none;fillColor=none;" parent="1" vertex="1">
                    <mxGeometry x="130" y="120" width="60" height="30" as="geometry"/>
                </mxCell>
                <mxCell id="97" value="&lt;font face=&quot;Georgia&quot;&gt;&lt;b&gt;Way1&lt;/b&gt;&lt;/font&gt;" style="text;html=1;align=center;verticalAlign=middle;resizable=0;points=[];autosize=1;strokeColor=none;fillColor=none;" parent="1" vertex="1">
                    <mxGeometry x="210" y="120" width="60" height="30" as="geometry"/>
                </mxCell>
                <mxCell id="98" value="&lt;font face=&quot;Georgia&quot;&gt;&lt;b&gt;Way2&lt;/b&gt;&lt;/font&gt;" style="text;html=1;align=center;verticalAlign=middle;resizable=0;points=[];autosize=1;strokeColor=none;fillColor=none;" parent="1" vertex="1">
                    <mxGeometry x="290" y="120" width="60" height="30" as="geometry"/>
                </mxCell>
                <mxCell id="99" value="&lt;font face=&quot;Georgia&quot;&gt;&lt;b&gt;Way3&lt;/b&gt;&lt;/font&gt;" style="text;html=1;align=center;verticalAlign=middle;resizable=0;points=[];autosize=1;strokeColor=none;fillColor=none;" parent="1" vertex="1">
                    <mxGeometry x="370" y="120" width="60" height="30" as="geometry"/>
                </mxCell>
                <mxCell id="127" value="" style="rounded=0;whiteSpace=wrap;html=1;fillColor=#ffe6cc;strokeColor=#d79b00;" vertex="1" parent="1">
                    <mxGeometry x="560" y="150" width="80" height="30" as="geometry"/>
                </mxCell>
                <mxCell id="128" value="" style="rounded=0;whiteSpace=wrap;html=1;" vertex="1" parent="1">
                    <mxGeometry x="640" y="150" width="80" height="30" as="geometry"/>
                </mxCell>
                <mxCell id="129" value="" style="rounded=0;whiteSpace=wrap;html=1;fillColor=#ffe6cc;strokeColor=#d79b00;" vertex="1" parent="1">
                    <mxGeometry x="720" y="150" width="80" height="30" as="geometry"/>
                </mxCell>
                <mxCell id="130" value="" style="rounded=0;whiteSpace=wrap;html=1;" vertex="1" parent="1">
                    <mxGeometry x="800" y="150" width="80" height="30" as="geometry"/>
                </mxCell>
                <mxCell id="131" value="&lt;font face=&quot;Georgia&quot; style=&quot;font-size: 9px;&quot;&gt;&lt;b&gt;{&#39;hA,&amp;nbsp;&lt;span style=&quot;color: rgb(0, 0, 0);&quot;&gt;12&lt;/span&gt;&#39;h1}&lt;/b&gt;&lt;/font&gt;&lt;div&gt;&lt;font face=&quot;Georgia&quot; style=&quot;font-size: 9px;&quot;&gt;&lt;b&gt;age = 3&lt;/b&gt;&lt;/font&gt;&lt;/div&gt;" style="rounded=0;whiteSpace=wrap;html=1;fillColor=#ffe6cc;strokeColor=#d79b00;" vertex="1" parent="1">
                    <mxGeometry x="560" y="180" width="80" height="30" as="geometry"/>
                </mxCell>
                <mxCell id="132" value="" style="rounded=0;whiteSpace=wrap;html=1;fillColor=#ffe6cc;strokeColor=#d79b00;" vertex="1" parent="1">
                    <mxGeometry x="640" y="180" width="80" height="30" as="geometry"/>
                </mxCell>
                <mxCell id="133" value="&lt;font face=&quot;Georgia&quot; style=&quot;font-size: 9px;&quot;&gt;&lt;b&gt;{&#39;h7,&amp;nbsp;&lt;span style=&quot;color: rgb(0, 0, 0);&quot;&gt;12&lt;/span&gt;&#39;h1}&lt;/b&gt;&lt;/font&gt;&lt;div&gt;&lt;font face=&quot;Georgia&quot; style=&quot;font-size: 9px;&quot;&gt;&lt;b&gt;age = 2&lt;/b&gt;&lt;/font&gt;&lt;/div&gt;" style="rounded=0;whiteSpace=wrap;html=1;fillColor=#ffe6cc;strokeColor=#d79b00;" vertex="1" parent="1">
                    <mxGeometry x="720" y="180" width="80" height="30" as="geometry"/>
                </mxCell>
                <mxCell id="134" value="" style="rounded=0;whiteSpace=wrap;html=1;fillColor=#ffe6cc;strokeColor=#d79b00;" vertex="1" parent="1">
                    <mxGeometry x="800" y="180" width="80" height="30" as="geometry"/>
                </mxCell>
                <mxCell id="135" value="... ..." style="rounded=0;whiteSpace=wrap;html=1;" vertex="1" parent="1">
                    <mxGeometry x="560" y="210" width="80" height="30" as="geometry"/>
                </mxCell>
                <mxCell id="136" value="&lt;span style=&quot;color: rgb(0, 0, 0);&quot;&gt;... ...&lt;/span&gt;" style="rounded=0;whiteSpace=wrap;html=1;" vertex="1" parent="1">
                    <mxGeometry x="640" y="210" width="80" height="30" as="geometry"/>
                </mxCell>
                <mxCell id="137" value="&lt;span style=&quot;color: rgb(0, 0, 0);&quot;&gt;... ...&lt;/span&gt;" style="rounded=0;whiteSpace=wrap;html=1;" vertex="1" parent="1">
                    <mxGeometry x="720" y="210" width="80" height="30" as="geometry"/>
                </mxCell>
                <mxCell id="138" value="&lt;span style=&quot;color: rgb(0, 0, 0);&quot;&gt;... ...&lt;/span&gt;" style="rounded=0;whiteSpace=wrap;html=1;" vertex="1" parent="1">
                    <mxGeometry x="800" y="210" width="80" height="30" as="geometry"/>
                </mxCell>
                <mxCell id="139" value="" style="rounded=0;whiteSpace=wrap;html=1;" vertex="1" parent="1">
                    <mxGeometry x="560" y="240" width="80" height="30" as="geometry"/>
                </mxCell>
                <mxCell id="140" value="" style="rounded=0;whiteSpace=wrap;html=1;" vertex="1" parent="1">
                    <mxGeometry x="640" y="240" width="80" height="30" as="geometry"/>
                </mxCell>
                <mxCell id="141" value="" style="rounded=0;whiteSpace=wrap;html=1;" vertex="1" parent="1">
                    <mxGeometry x="720" y="240" width="80" height="30" as="geometry"/>
                </mxCell>
                <mxCell id="142" value="" style="rounded=0;whiteSpace=wrap;html=1;fillColor=#ffe6cc;strokeColor=#d79b00;" vertex="1" parent="1">
                    <mxGeometry x="800" y="240" width="80" height="30" as="geometry"/>
                </mxCell>
                <mxCell id="143" value="&lt;b&gt;&lt;font face=&quot;Georgia&quot;&gt;Index0&lt;/font&gt;&lt;/b&gt;" style="text;html=1;align=center;verticalAlign=middle;resizable=0;points=[];autosize=1;strokeColor=none;fillColor=none;" vertex="1" parent="1">
                    <mxGeometry x="490" y="150" width="70" height="30" as="geometry"/>
                </mxCell>
                <mxCell id="144" value="&lt;font face=&quot;Georgia&quot;&gt;&lt;b&gt;Index4095&lt;/b&gt;&lt;/font&gt;" style="text;html=1;align=center;verticalAlign=middle;resizable=0;points=[];autosize=1;strokeColor=none;fillColor=none;" vertex="1" parent="1">
                    <mxGeometry x="480" y="240" width="90" height="30" as="geometry"/>
                </mxCell>
                <mxCell id="145" value="... ..." style="text;html=1;align=center;verticalAlign=middle;resizable=0;points=[];autosize=1;strokeColor=none;fillColor=none;" vertex="1" parent="1">
                    <mxGeometry x="505" y="208" width="50" height="30" as="geometry"/>
                </mxCell>
                <mxCell id="146" value="&lt;font face=&quot;Georgia&quot;&gt;&lt;b&gt;Index1&lt;/b&gt;&lt;/font&gt;" style="text;html=1;align=center;verticalAlign=middle;resizable=0;points=[];autosize=1;strokeColor=none;fillColor=none;" vertex="1" parent="1">
                    <mxGeometry x="495" y="180" width="60" height="30" as="geometry"/>
                </mxCell>
                <mxCell id="147" value="&lt;font face=&quot;Georgia&quot;&gt;&lt;b&gt;Way0&lt;/b&gt;&lt;/font&gt;" style="text;html=1;align=center;verticalAlign=middle;resizable=0;points=[];autosize=1;strokeColor=none;fillColor=none;" vertex="1" parent="1">
                    <mxGeometry x="570" y="120" width="60" height="30" as="geometry"/>
                </mxCell>
                <mxCell id="148" value="&lt;font face=&quot;Georgia&quot;&gt;&lt;b&gt;Way1&lt;/b&gt;&lt;/font&gt;" style="text;html=1;align=center;verticalAlign=middle;resizable=0;points=[];autosize=1;strokeColor=none;fillColor=none;" vertex="1" parent="1">
                    <mxGeometry x="650" y="120" width="60" height="30" as="geometry"/>
                </mxCell>
                <mxCell id="149" value="&lt;font face=&quot;Georgia&quot;&gt;&lt;b&gt;Way2&lt;/b&gt;&lt;/font&gt;" style="text;html=1;align=center;verticalAlign=middle;resizable=0;points=[];autosize=1;strokeColor=none;fillColor=none;" vertex="1" parent="1">
                    <mxGeometry x="730" y="120" width="60" height="30" as="geometry"/>
                </mxCell>
                <mxCell id="150" value="&lt;font face=&quot;Georgia&quot;&gt;&lt;b&gt;Way3&lt;/b&gt;&lt;/font&gt;" style="text;html=1;align=center;verticalAlign=middle;resizable=0;points=[];autosize=1;strokeColor=none;fillColor=none;" vertex="1" parent="1">
                    <mxGeometry x="810" y="120" width="60" height="30" as="geometry"/>
                </mxCell>
                <mxCell id="153" value="&lt;font style=&quot;color: rgb(200, 85, 85);&quot; face=&quot;Georgia&quot;&gt;&lt;span style=&quot;font-size: 15px;&quot;&gt;&lt;b style=&quot;&quot;&gt;DUT&lt;/b&gt;&lt;/span&gt;&lt;/font&gt;" style="text;html=1;align=center;verticalAlign=middle;resizable=0;points=[];autosize=1;strokeColor=none;fillColor=none;" vertex="1" parent="1">
                    <mxGeometry x="390" y="80" width="60" height="30" as="geometry"/>
                </mxCell>
                <mxCell id="154" value="&lt;p&gt;&lt;font style=&quot;color: rgb(51, 51, 255);&quot; face=&quot;Georgia&quot;&gt;&lt;span style=&quot;font-size: 15px;&quot;&gt;&lt;b style=&quot;&quot;&gt;Model&lt;/b&gt;&lt;/span&gt;&lt;/font&gt;&lt;/p&gt;" style="text;html=1;align=center;verticalAlign=middle;resizable=0;points=[];autosize=1;strokeColor=none;fillColor=none;" vertex="1" parent="1">
                    <mxGeometry x="835" y="65" width="70" height="60" as="geometry"/>
                </mxCell>
                <mxCell id="158" style="edgeStyle=none;html=1;entryX=0;entryY=0.5;entryDx=0;entryDy=0;" edge="1" parent="1" source="155" target="157">
                    <mxGeometry relative="1" as="geometry"/>
                </mxCell>
                <mxCell id="155" value="&lt;font face=&quot;Georgia&quot;&gt;&lt;b&gt;Req Queue&lt;/b&gt;&lt;/font&gt;" style="rounded=0;whiteSpace=wrap;html=1;" vertex="1" parent="1">
                    <mxGeometry x="200" y="40" width="80" height="40" as="geometry"/>
                </mxCell>
                <mxCell id="159" style="edgeStyle=none;html=1;entryX=0;entryY=0.5;entryDx=0;entryDy=0;" edge="1" parent="1">
                    <mxGeometry relative="1" as="geometry">
                        <mxPoint x="200" y="60" as="targetPoint"/>
                        <mxPoint x="400" y="60" as="sourcePoint"/>
                        <Array as="points">
                            <mxPoint x="420" y="60"/>
                            <mxPoint x="420" y="20"/>
                            <mxPoint x="170" y="20"/>
                            <mxPoint x="170" y="60"/>
                        </Array>
                    </mxGeometry>
                </mxCell>
                <mxCell id="157" value="&lt;font face=&quot;Georgia&quot;&gt;&lt;b&gt;Deal&lt;/b&gt;&lt;/font&gt;" style="rounded=0;whiteSpace=wrap;html=1;" vertex="1" parent="1">
                    <mxGeometry x="320" y="40" width="80" height="40" as="geometry"/>
                </mxCell>
                <mxCell id="160" style="edgeStyle=none;html=1;entryX=0;entryY=0.5;entryDx=0;entryDy=0;" edge="1" parent="1">
                    <mxGeometry relative="1" as="geometry">
                        <mxPoint x="150" y="60" as="sourcePoint"/>
                        <mxPoint x="200" y="59.67" as="targetPoint"/>
                    </mxGeometry>
                </mxCell>
                <mxCell id="161" value="&lt;b&gt;&lt;font face=&quot;Georgia&quot;&gt;Req&lt;/font&gt;&lt;/b&gt;" style="text;html=1;align=center;verticalAlign=middle;resizable=0;points=[];autosize=1;strokeColor=none;fillColor=none;" vertex="1" parent="1">
                    <mxGeometry x="110" y="45" width="50" height="30" as="geometry"/>
                </mxCell>
                <mxCell id="162" style="edgeStyle=none;html=1;entryX=0;entryY=0.5;entryDx=0;entryDy=0;" edge="1" parent="1" source="163" target="164">
                    <mxGeometry relative="1" as="geometry"/>
                </mxCell>
                <mxCell id="163" value="&lt;font face=&quot;Georgia&quot;&gt;&lt;b&gt;Req Queue&lt;/b&gt;&lt;/font&gt;" style="rounded=0;whiteSpace=wrap;html=1;" vertex="1" parent="1">
                    <mxGeometry x="645" y="40" width="80" height="40" as="geometry"/>
                </mxCell>
                <mxCell id="164" value="&lt;font face=&quot;Georgia&quot;&gt;&lt;b&gt;Deal&lt;/b&gt;&lt;/font&gt;" style="rounded=0;whiteSpace=wrap;html=1;" vertex="1" parent="1">
                    <mxGeometry x="765" y="40" width="80" height="40" as="geometry"/>
                </mxCell>
                <mxCell id="165" style="edgeStyle=none;html=1;entryX=0;entryY=0.5;entryDx=0;entryDy=0;" edge="1" parent="1">
                    <mxGeometry relative="1" as="geometry">
                        <mxPoint x="595" y="60" as="sourcePoint"/>
                        <mxPoint x="645" y="59.67" as="targetPoint"/>
                    </mxGeometry>
                </mxCell>
                <mxCell id="166" value="&lt;b&gt;&lt;font face=&quot;Georgia&quot;&gt;Req&lt;/font&gt;&lt;/b&gt;" style="text;html=1;align=center;verticalAlign=middle;resizable=0;points=[];autosize=1;strokeColor=none;fillColor=none;" vertex="1" parent="1">
                    <mxGeometry x="555" y="45" width="50" height="30" as="geometry"/>
                </mxCell>
                <mxCell id="168" value="&lt;font style=&quot;font-size: 19px;&quot; face=&quot;Georgia&quot;&gt;&lt;b style=&quot;&quot;&gt;LRU aging.&amp;nbsp; &amp;nbsp; 老化顺序不能确定&amp;nbsp;&lt;/b&gt;&lt;/font&gt;&lt;div&gt;&lt;font face=&quot;Georgia&quot;&gt;&lt;span style=&quot;font-size: 19px;&quot;&gt;&lt;b&gt;&lt;br&gt;&lt;/b&gt;&lt;/span&gt;&lt;/font&gt;&lt;div&gt;&lt;font style=&quot;font-size: 19px;&quot; face=&quot;Georgia&quot; color=&quot;#000000&quot;&gt;&lt;b&gt;Req1=addr: A;&amp;nbsp; &amp;nbsp; &amp;nbsp;Req2=addr:A.&amp;nbsp; &amp;nbsp; 处理顺序不能确定&lt;/b&gt;&lt;/font&gt;&lt;/div&gt;&lt;div&gt;&lt;font style=&quot;font-size: 19px;&quot; face=&quot;Georgia&quot; color=&quot;#000000&quot;&gt;&lt;b&gt;&lt;br&gt;&lt;/b&gt;&lt;/font&gt;&lt;div&gt;&lt;font style=&quot;font-size: 19px;&quot; face=&quot;Georgia&quot;&gt;&lt;b style=&quot;&quot;&gt;BItag 顺序问题&lt;/b&gt;&lt;/font&gt;&lt;/div&gt;&lt;/div&gt;&lt;/div&gt;" style="text;html=1;align=center;verticalAlign=middle;resizable=0;points=[];autosize=1;strokeColor=none;fillColor=none;" vertex="1" parent="1">
                    <mxGeometry x="210" y="300" width="500" height="130" as="geometry"/>
                </mxCell>
                <mxCell id="172" value="E" style="rounded=0;whiteSpace=wrap;html=1;" vertex="1" parent="1">
                    <mxGeometry x="180" y="-105" width="20" height="20" as="geometry"/>
                </mxCell>
                <mxCell id="173" value="I" style="rounded=0;whiteSpace=wrap;html=1;" vertex="1" parent="1">
                    <mxGeometry x="200" y="-105" width="20" height="20" as="geometry"/>
                </mxCell>
                <mxCell id="174" value="I" style="rounded=0;whiteSpace=wrap;html=1;" vertex="1" parent="1">
                    <mxGeometry x="220" y="-105" width="20" height="20" as="geometry"/>
                </mxCell>
                <mxCell id="175" value="I" style="rounded=0;whiteSpace=wrap;html=1;" vertex="1" parent="1">
                    <mxGeometry x="240" y="-105" width="20" height="20" as="geometry"/>
                </mxCell>
                <mxCell id="176" value="1" style="rounded=0;whiteSpace=wrap;html=1;" vertex="1" parent="1">
                    <mxGeometry x="180" y="-85" width="20" height="20" as="geometry"/>
                </mxCell>
                <mxCell id="177" value="2" style="rounded=0;whiteSpace=wrap;html=1;" vertex="1" parent="1">
                    <mxGeometry x="200" y="-85" width="20" height="20" as="geometry"/>
                </mxCell>
                <mxCell id="178" value="5" style="rounded=0;whiteSpace=wrap;html=1;" vertex="1" parent="1">
                    <mxGeometry x="220" y="-85" width="20" height="20" as="geometry"/>
                </mxCell>
                <mxCell id="179" value="7" style="rounded=0;whiteSpace=wrap;html=1;" vertex="1" parent="1">
                    <mxGeometry x="240" y="-85" width="20" height="20" as="geometry"/>
                </mxCell>
                <mxCell id="180" value="&lt;font face=&quot;Georgia&quot;&gt;&lt;b&gt;cacheline_state&lt;/b&gt;&lt;/font&gt;" style="text;html=1;align=center;verticalAlign=middle;resizable=0;points=[];autosize=1;strokeColor=none;fillColor=none;" vertex="1" parent="1">
                    <mxGeometry x="65" y="-110" width="120" height="30" as="geometry"/>
                </mxCell>
                <mxCell id="181" value="&lt;font face=&quot;Georgia&quot;&gt;&lt;b&gt;pid&lt;/b&gt;&lt;/font&gt;" style="text;html=1;align=center;verticalAlign=middle;resizable=0;points=[];autosize=1;strokeColor=none;fillColor=none;" vertex="1" parent="1">
                    <mxGeometry x="105" y="-90" width="40" height="30" as="geometry"/>
                </mxCell>
                <mxCell id="182" value="&lt;font face=&quot;Georgia&quot;&gt;&lt;b&gt;SF one way one index&lt;/b&gt;&lt;/font&gt;" style="text;html=1;align=center;verticalAlign=middle;resizable=0;points=[];autosize=1;strokeColor=none;fillColor=none;" vertex="1" parent="1">
                    <mxGeometry x="140" y="-140" width="160" height="30" as="geometry"/>
                </mxCell>
                <mxCell id="184" value="" style="shape=link;html=1;" edge="1" parent="1">
                    <mxGeometry width="100" relative="1" as="geometry">
                        <mxPoint x="80" y="-20" as="sourcePoint"/>
                        <mxPoint x="900" y="-20" as="targetPoint"/>
                    </mxGeometry>
                </mxCell>
                <mxCell id="185" value="S" style="rounded=0;whiteSpace=wrap;html=1;" vertex="1" parent="1">
                    <mxGeometry x="635" y="-100" width="20" height="20" as="geometry"/>
                </mxCell>
                <mxCell id="186" value="I" style="rounded=0;whiteSpace=wrap;html=1;" vertex="1" parent="1">
                    <mxGeometry x="655" y="-100" width="20" height="20" as="geometry"/>
                </mxCell>
                <mxCell id="187" value="I" style="rounded=0;whiteSpace=wrap;html=1;" vertex="1" parent="1">
                    <mxGeometry x="675" y="-100" width="20" height="20" as="geometry"/>
                </mxCell>
                <mxCell id="188" value="S" style="rounded=0;whiteSpace=wrap;html=1;" vertex="1" parent="1">
                    <mxGeometry x="695" y="-100" width="20" height="20" as="geometry"/>
                </mxCell>
                <mxCell id="189" value="1" style="rounded=0;whiteSpace=wrap;html=1;" vertex="1" parent="1">
                    <mxGeometry x="635" y="-80" width="20" height="20" as="geometry"/>
                </mxCell>
                <mxCell id="190" value="2" style="rounded=0;whiteSpace=wrap;html=1;" vertex="1" parent="1">
                    <mxGeometry x="655" y="-80" width="20" height="20" as="geometry"/>
                </mxCell>
                <mxCell id="191" value="5" style="rounded=0;whiteSpace=wrap;html=1;" vertex="1" parent="1">
                    <mxGeometry x="675" y="-80" width="20" height="20" as="geometry"/>
                </mxCell>
                <mxCell id="192" value="7" style="rounded=0;whiteSpace=wrap;html=1;" vertex="1" parent="1">
                    <mxGeometry x="695" y="-80" width="20" height="20" as="geometry"/>
                </mxCell>
                <mxCell id="193" value="&lt;font face=&quot;Georgia&quot;&gt;&lt;b&gt;cacheline_state&lt;/b&gt;&lt;/font&gt;" style="text;html=1;align=center;verticalAlign=middle;resizable=0;points=[];autosize=1;strokeColor=none;fillColor=none;" vertex="1" parent="1">
                    <mxGeometry x="520" y="-105" width="120" height="30" as="geometry"/>
                </mxCell>
                <mxCell id="194" value="&lt;font face=&quot;Georgia&quot;&gt;&lt;b&gt;pid&lt;/b&gt;&lt;/font&gt;" style="text;html=1;align=center;verticalAlign=middle;resizable=0;points=[];autosize=1;strokeColor=none;fillColor=none;" vertex="1" parent="1">
                    <mxGeometry x="560" y="-85" width="40" height="30" as="geometry"/>
                </mxCell>
                <mxCell id="195" value="&lt;font face=&quot;Georgia&quot;&gt;&lt;b&gt;SF one way one index&lt;/b&gt;&lt;/font&gt;" style="text;html=1;align=center;verticalAlign=middle;resizable=0;points=[];autosize=1;strokeColor=none;fillColor=none;" vertex="1" parent="1">
                    <mxGeometry x="580" y="-135" width="160" height="30" as="geometry"/>
                </mxCell>
                <mxCell id="196" value="&lt;font face=&quot;Georgia&quot;&gt;&lt;b&gt;Req ：SnpData, MemRd, pid = 2&lt;/b&gt;&lt;/font&gt;" style="text;html=1;align=center;verticalAlign=middle;resizable=0;points=[];autosize=1;strokeColor=none;fillColor=none;" vertex="1" parent="1">
                    <mxGeometry x="735" y="-105" width="220" height="30" as="geometry"/>
                </mxCell>
                <mxCell id="197" value="&lt;font face=&quot;Georgia&quot;&gt;&lt;b&gt;BItag ：？&amp;nbsp; &amp;nbsp;1 / 1,2&lt;/b&gt;&lt;/font&gt;" style="text;html=1;align=center;verticalAlign=middle;resizable=0;points=[];autosize=1;strokeColor=none;fillColor=none;" vertex="1" parent="1">
                    <mxGeometry x="780" y="-65" width="130" height="30" as="geometry"/>
                </mxCell>
            </root>
        </mxGraphModel>
    </diagram>
</mxfile>